  <svg width="500" height="500"><g transform="translate(25,25)"><g class="dotsGroup"></g><g class="sinlinegroup"><path d="M225,225L236.30474843998755,224.92896923597067L247.57960291022528,224.71624140489405L258.7947529280644,224.3629084589428L269.9205547415239,223.87078555395433L280.92761408652433,223.24240392054702L291.7868682164494,222.48100091920395L302.4696669648942,221.5905073147008L312.94785260536315,220.5755318151559L323.193838275307,219.44134293072813L333.1806847362078,218.19384821654953L342.88217524642886,216.83957097382188L352.27288832922693,215.38562449209616L361.3282682246545,213.83968392456416L370.0246928210497,212.20995589668735L378.33953886938656,210.5051459566457L386.2512442919321,208.7344239838747L393.73936740538556,206.9073876793535L400.7846428879474,205.03402426827523L407.3690343295458,203.12467055226213L413.47578321470354,201.18997145434307L419.0894541982386,199.24083720548725L424.1959765451068,197.28839932655094L428.78268161719797,195.34396556403468L432.8383363017434,193.41897394204835L436.3531722881444,191.52494609632697L439.31891111245824,189.6734400590172L441.7287849014384,187.87600266525726L443.5775527608766,186.14412175428686L444.8615127660063,184.48917833894876L445.5785095248498,182.92239891796964L445.72793729859023,181.45480810533542L445.310738676286,180.09718175040655L444.3293988144725,178.8600007211466L442.78793526537993,177.75340552097435L440.69188343059267,176.78715190729775L438.0482776899465,175.97056767674854L434.86562826826486,175.31251077853506L431.15389391513725,174.82132891315644L426.9244504852995,174.5048207690092L422.19005551925375,174.37019904416644L416.9648089355273,174.4240553948443L411.26410995737524,174.67232744580957L405.104610407757,175.12026799124055L398.504164517012,175.77241650735925L391.48177539781256,176.6325730905246L384.0575383516362,177.70377492644405L376.25258118015165,178.9882753877419L368.0890016835304,180.48752584835745L359.58980253574316,182.20216029414968L350.7788237343632,184.13198279969845L341.6806728292467,186.2759579316387L332.32065314068245,188.63220412897982L322.72469018317116,191.19799010077844L312.9192565158991,193.96973427128262L302.93129524520026,196.94300729228192L292.7881424078283,200.1125376319189L282.5174484667014,203.47222023867286L272.14709915289933,207.01512826865567L261.705135889108,210.73352785379564L251.21967603039676,214.61889587796364L240.71883315818934,218.6619407176519L230.23063766254631,222.85262589348434L219.78295784642208,227.18019656865468L209.40342178339367,231.63320882038497L199.1193401574965,236.19956160071243L188.95763031024788,240.8665312933719L178.9447417157065,245.62080876428584L169.1065830995227,250.44853879422743L159.46845141239007,255.33536177361964L150.05496286213898,260.26645753120306L140.88998620193158,265.22659116047527L131.99657846465092,270.2001607004004L123.39692332564758,275.1712465199395L115.11227226753934,280.12366224947783L107.16288871178259,285.041007096254L99.56799527227595,289.90671937544073L92.34572427634498,294.70413108362027L85.51307168813034,299.41652333703837L79.08585455868203,304.0271824932447L73.07867211599624,308.5194567715343L67.50487059684129,312.8768131850122L62.37651191055229,317.0828945951248L57.70434621305913,321.12157669813257L53.49778845728793,324.9770247522705L49.76489897378883,328.63374985422104L46.5123681230138,332.0766645740588L43.74550504815786,335.2911377589692L41.46823054490338,338.2630483178339L39.68307405182615,340.9788378011778L38.39117475266293,343.42556159400374L37.59228676914313,345.5909385426771L37.28478841069813,347.4633988412626L37.46569543510621,349.03213000754465L38.13067826206096,350.28712078436536L39.27408306979117,351.2192028078766L40.88895669325607,351.8200898908075L42.96707523112119,352.08241477587353L45.498976257724344,351.99976322197983L48.47399452560188,351.5667052938742L51.88030103389199,350.7788237343632L55.70494532810042,349.63273930708624L59.93390088732723,348.126133007127L64.55211344614901,346.25776504639197L69.54355208994144,344.0274905306822L74.89126295455821,341.4362717556832L80.57742535395069,338.48618705967885L86.58341015256816,335.1804361816146L92.88984019321522,331.52334208416795L99.4766525854988,327.52034921268626L106.32316265507356,323.1780181721963L113.40812934961232,318.5040168161329L120.70982189380236,313.5071077519458L128.2060874826928,308.1971322802819L135.87441980042712,302.5849907959687L143.6920281497607,296.6826196905138L151.63590697682264,290.502964807232L159.68290557530537,284.05995151139985L167.80979775467893,277.36845144895915L175.99335125810273,270.4442460782301L184.21039671746632,263.3039870697975L192.43789593539418,255.9651536801804L200.65300928712367,248.44600721504003L208.83316203886076,240.76554270750046L216.95610938355878,232.9434379466052L224.99999999999994,225.00000000000006L232.94343794660526,216.95610938355873L240.7655427075004,208.83316203886082L248.44600721504008,200.65300928712358L255.96515368018046,192.43789593539407L263.30398706979753,184.21039671746627L270.44424607823015,175.99335125810268L277.36845144895915,167.80979775467887L284.0599515113999,159.6829055753053L290.50296480723205,151.63590697682253L296.6826196905139,143.69202814976063L302.58499079596874,135.87441980042706L308.1971322802819,128.20608748269274L313.5071077519458,120.70982189380231L318.5040168161329,113.4081293496123L323.17801817219635,106.32316265507353L327.5203492126863,99.47665258549875L331.52334208416795,92.88984019321515L335.1804361816146,86.58341015256809L338.4861870596788,80.57742535395079L341.43627175568326,74.89126295455821L344.02749053068214,69.54355208994144L346.257765046392,64.55211344614901L348.126133007127,59.9339008873273L349.6327393070863,55.70494532810034L350.7788237343632,51.88030103389195L351.5667052938742,48.47399452560188L351.99976322197983,45.49897625772428L352.08241477587353,42.967075231121214L351.8200898908075,40.888956693256034L351.2192028078766,39.27408306979112L350.28712078436536,38.13067826206094L349.03213000754465,37.46569543510623L347.4633988412625,37.28478841069813L345.59093854267707,37.59228676914313L343.42556159400374,38.39117475266295L340.97883780117775,39.683074051826225L338.2630483178339,41.46823054490335L335.29113775896917,43.745505048157895L332.0766645740588,46.5123681230138L328.63374985422104,49.76489897378889L324.97702475227055,53.497788457287925L321.1215766981326,57.704346213059125L317.0828945951247,62.376511910552324L312.8768131850122,67.50487059684133L308.51945677153435,73.0786721159962L304.02718249324477,79.08585455868206L299.41652333703837,85.51307168813037L294.7041310836202,92.3457242763451L289.9067193754406,99.56799527227611L285.041007096254,107.16288871178261L280.1236622494779,115.11227226753937L275.1712465199394,123.39692332564766L270.20016070040026,131.99657846465112L265.2265911604753,140.8899862019315L260.2664575312031,150.05496286213895L255.3353617736196,159.4684514123901L250.44853879422737,169.10658309952282L245.6208087642859,178.9447417157064L240.86653129337193,188.9576303102479L236.1995616007124,199.1193401574966L231.63320882038494,209.40342178339384L227.1801965686547,219.78295784642202L222.85262589348437,230.23063766254631L218.6619407176519,240.7188331581894L214.61889587796358,251.21967603039695L210.7335278537957,261.7051358891079L207.01512826865567,272.1470991528993L203.47222023867286,282.51744846670147L200.11253763191885,292.78814240782845L196.94300729228183,302.9312952452005L193.96973427128265,312.9192565158991L191.19799010077847,322.7246901831711L188.6322041289798,332.32065314068257L186.27595793163866,341.6806728292468L184.13198279969848,350.7788237343631L182.20216029414968,359.58980253574316L180.48752584835745,368.08900168353046L178.9882753877419,376.2525811801518L177.70377492644408,384.05753835163614L176.6325730905246,391.4817753978126L175.77241650735925,398.504164517012L175.12026799124055,405.1046104077571L174.67232744580957,411.2641099573752L174.4240553948443,416.96480893552723L174.3701990441664,422.1900555192538L174.5048207690092,426.92445048529953L174.82132891315638,431.1538939151372L175.31251077853503,434.8656282682648L175.97056767674854,438.0482776899465L176.78715190729775,440.6918834305927L177.75340552097444,442.78793526537993L178.86000072114658,444.3293988144724L180.09718175040658,445.31073867628595L181.45480810533542,445.7279372985902L182.92239891796962,445.5785095248497L184.48917833894876,444.8615127660063L186.14412175428686,443.5775527608766L187.87600266525726,441.7287849014384L189.67344005901722,439.31891111245824L191.52494609632694,436.35317228814444L193.41897394204835,432.8383363017434L195.34396556403468,428.7826816171979L197.28839932655097,424.19597654510676L199.24083720548725,419.0894541982387L201.18997145434307,413.47578321470354L203.12467055226216,407.3690343295457L205.03402426827526,400.78464288794737L206.90738767935343,393.7393674053856L208.7344239838747,386.25124429193215L210.5051459566457,378.3395388693865L212.20995589668738,370.0246928210496L213.83968392456418,361.3282682246543L215.38562449209616,352.27288832922693L216.83957097382188,342.88217524642886L218.19384821654953,333.1806847362077L219.44134293072813,323.1938382753068L220.5755318151559,312.9478526053632L221.59050731470083,302.46966696489415L222.48100091920395,291.7868682164493L223.24240392054702,280.9276140865241L223.87078555395433,269.92055474152403L224.3629084589428,258.7947529280643L224.71624140489405,247.57960291022522L224.92896923597067,236.30474843998738L225,225.0000000000001L224.92896923597067,213.69525156001245L224.71624140489405,202.4203970897746L224.3629084589428,191.2052470719355L223.87078555395433,180.07944525847614L223.24240392054702,169.07238591347567L222.48100091920395,158.21313178355052L221.5905073147008,147.53033303510568L220.57553181515587,137.05214739463668L219.4413429307281,126.80616172469303L218.1938482165495,116.81931526379219L216.83957097382185,107.11782475357097L215.38562449209616,97.7271116707729L213.83968392456416,88.6717317753455L212.20995589668735,79.97530717895023L210.50514595664566,71.66046113061333L208.73442398387468,63.74875570806773L206.9073876793535,56.26063259461449L205.03402426827523,49.21535711205257L203.12467055226213,42.6309656704542L201.18997145434307,36.52421678529646L199.24083720548728,30.910545801761373L197.28839932655097,25.804023454893183L195.34396556403465,21.217318382802034L193.41897394204832,17.161663698256575L191.52494609632697,13.646827711855622L189.6734400590172,10.681088887541762L187.87600266525723,8.271215098561584L186.1441217542868,6.422447239123414L184.48917833894873,5.138487233993715L182.92239891796962,4.421490475150222L181.4548081053354,4.272062701409766L180.09718175040655,4.689261323713993L178.86000072114652,5.6706011855275165L177.7534055209744,7.212064734620071L176.78715190729773,9.308116569407332L175.97056767674854,11.951722310053526L175.31251077853503,15.1343717317352L174.8213289131564,18.846106084862754L174.5048207690092,23.075549514700526L174.3701990441664,27.80994448074631L174.4240553948443,33.035191064472826L174.67232744580957,38.73589004262476L175.12026799124058,44.89538959224302L175.77241650735925,51.49583548298813L176.63257309052463,58.5182246021875L177.70377492644405,65.94246164836369L178.98827538774194,73.74741881984835L180.48752584835745,81.91099831646972L182.2021602941497,90.41019746425701L184.1319827996985,99.22117626563704L186.27595793163871,108.3193271707533L188.63220412897982,117.6793468593176L191.1979901007785,127.27530981682901L193.96973427128268,137.08074348410105L196.94300729228186,147.06870475479968L200.1125376319189,157.21185759217173L203.4722202386729,167.48255153329865L207.01512826865573,177.85290084710084L210.7335278537956,188.29486411089187L214.61889587796367,198.78032396960324L218.66194071765196,209.28116684181074L222.85262589348446,219.76936233745386L227.18019656865465,230.21704215357778L231.63320882038497,240.59657821660633L236.19956160071246,250.88065984250358L240.86653129337196,261.04236968975226L245.62080876428578,271.0552582842934L250.44853879422743,280.8934169004773L255.33536177361964,290.53154858761L260.2664575312031,299.94503713786116L265.22659116047544,309.1100137980686L270.20016070040055,318.0034215353494L275.17124651993964,326.60307667435274L280.1236622494778,334.8877277324605L285.04100709625396,342.8371112882173L289.90671937544073,350.432004727724L294.70413108362027,357.654275723655L299.4165233370384,364.48692831186975L304.0271824932448,370.91414544131806L308.5194567715344,376.9213278840039L312.8768131850125,382.49512940315896L317.0828945951247,387.6234880894476L321.12157669813257,392.2956537869409L324.97702475227044,396.502211542712L328.6337498542211,400.2351010262112L332.07666457405884,403.48763187698626L335.2911377589692,406.25449495184216L338.2630483178339,408.53176945509665L340.97883780117786,410.3169259481739L343.4255615940036,411.60882524733705L345.590938542677,412.40771323085687L347.4633988412625,412.7152115893019L349.03213000754465,412.5343045648938L350.2871207843654,411.86932173793906L351.2192028078766,410.7259169302088L351.82008989080754,409.1110433067439L352.08241477587353,407.03292476887873L351.9997632219798,404.50102374227555L351.56670529387424,401.52600547439823L350.7788237343632,398.11969896610805L349.6327393070863,394.29505467189966L348.126133007127,390.0660991126727L346.25776504639197,385.44788655385094L344.02749053068214,380.45644791005844L341.43627175568315,375.1087370454416L338.48618705967874,369.4225746460491L335.1804361816147,363.416589847432L331.523342084168,357.11015980678496L327.5203492126863,350.52334741450125L323.17801817219635,343.6768373449265L318.50401681613283,336.5918706503876L313.50710775194574,329.2901781061976L308.1971322802818,321.79391251730704L302.58499079596857,314.1255801995727L296.68261969051355,306.307971850239L290.50296480723216,298.3640930231776L284.0599515113999,290.3170944246947L277.36845144895915,282.1902022453212L270.44424607823004,274.0066487418972L263.3039870697974,265.7896032825336L255.9651536801802,257.5621040646056L248.44600721503983,249.3469907128761L240.7655427075001,241.16683796113887L232.9434379466054,233.04389061644144L225.0000000000001,225.0000000000001L216.95610938355878,217.0565620533948L208.8331620388608,209.23445729249954L200.65300928712355,201.5539927849598L192.43789593539404,194.03484631981945L184.21039671746604,186.69601293020224L175.99335125810248,179.55575392176968L167.8097977546791,172.63154855104102L159.6829055753055,165.94004848860027L151.63590697682264,159.497035192768L143.6920281497607,153.31738030948623L135.87441980042703,147.4150092040312L128.20608748269265,141.80286771971805L120.70982189380214,136.49289224805403L113.40812934961212,131.49598318386694L106.32316265507319,126.82198182780348L99.47665258549895,122.47965078731374L92.88984019321525,118.4766579158321L86.58341015256816,114.8195638183854L80.57742535395069,111.51381294032115L74.89126295455814,108.56372824431674L69.54355208994134,105.97250946931774L64.55211344614885,103.74223495360798L59.93390088732711,101.87386699287293L55.70494532810049,100.36726069291382L51.88030103389204,99.22117626563681L48.47399452560191,98.43329470612576L45.498976257724344,98.00023677802011L42.96707523112114,97.91758522412647L40.88895669325605,98.17991010919252L39.27408306979112,98.78079719212337L38.13067826206094,99.71287921563464L37.46569543510621,100.96786999245546L37.28478841069813,102.53660115873748L37.5922867691431,104.40906145732288L38.39117475266293,106.57443840599626L39.6830740518262,109.0211621988222L41.4682305449034,111.73695168216614L43.74550504815793,114.70886224103083L46.5123681230139,117.92333542594133L49.76489897378894,121.36625014577908L53.49778845728786,125.02297524772945L57.70434621305903,128.87842330186731L62.37651191055226,132.91710540487526L67.50487059684126,137.12318681498772L73.07867211599634,141.48054322846582L79.08585455868221,145.9728175067554L85.51307168813054,150.5834766629618L92.34572427634531,155.29586891637996L99.5679952722758,160.09328062455916L107.16288871178251,164.95899290374598L115.11227226753927,169.8763377505221L123.39692332564758,174.82875348006058L131.996578464651,179.79983929959968L140.8899862019317,184.7734088395248L150.05496286213918,189.73354246879705L159.46845141239035,194.66463822638056L169.1065830995231,199.55146120577277L178.94474171570633,204.37919123571407L188.95763031024777,209.13346870662804L199.11934015749648,213.80043839928754L209.40342178339375,218.36679117961503L219.78295784642228,222.8198034313454L230.23063766254654,227.1473741065157L240.71883315818968,231.3380592823482L251.2196760303972,235.3811041220365L261.7051358891078,239.26647214620428L272.1470991528992,242.9848717313443L282.5174484667014,246.5277797613271L292.7881424078284,249.88746236808112L302.9312952452004,253.05699270771814L312.91925651589935,256.03026572871744L322.7246901831714,258.8020098992216L332.32065314068285,261.36779587102023L341.6806728292471,263.7240420683614L350.778823734363,265.8680172003015L359.5898025357431,267.7978397058503L368.08900168353034,269.51247415164255L376.2525811801517,271.01172461225804L384.0575383516363,272.29622507355595L391.48177539781267,273.3674269094754L398.50416451701216,274.2275834926408L405.10461040775726,274.87973200875945L411.26410995737507,275.3276725541904L416.9648089355272,275.5759446051557L422.19005551925375,275.6298009558336L426.9244504852995,275.4951792309908L431.15389391513725,275.17867108684356L434.86562826826486,274.68748922146494L438.0482776899466,274.02943232325146L440.6918834305927,273.2128480927022L442.7879352653799,272.2465944790256L444.3293988144725,271.13999927885345L445.310738676286,269.90281824959345L445.72793729859023,268.54519189466464L445.5785095248498,267.07760108203036L444.8615127660063,265.5108216610512L443.5775527608766,263.85587824571314L441.7287849014383,262.1239973347427L439.3189111124581,260.32655994098275L436.35317228814444,258.4750539036731L432.8383363017434,256.5810260579517L428.78268161719797,254.65603443596535L424.1959765451068,252.71160067344903L419.08945419823857,250.75916279451272L413.4757832147033,248.81002854565688L407.36903432954557,246.87532944773778L400.7846428879472,244.96597573172468L393.73936740538574,243.09261232064657L386.2512442919322,241.2655760161253L378.33953886938656,239.49485404335434L370.02469282104965,237.79004410331265L361.32826822465444,236.16031607543584L352.2728883292267,234.61437550790382L342.88217524642863,233.16042902617812L333.1806847362074,231.80615178345045L323.1938382753065,230.55865706927185L312.94785260536327,229.4244681848441L302.46966696489426,228.4094926852992L291.7868682164494,227.51899908079605L280.9276140865242,226.75759607945298L269.92055474152374,226.12921444604567L258.79475292806404,225.6370915410572L247.57960291022493,225.28375859510595L236.3047484399871,225.07103076402933L225.0000000000002,225L213.69525156001257,225.07103076402933L202.42039708977475,225.28375859510595L191.2052470719356,225.6370915410572L180.07944525847591,226.12921444604567L169.07238591347542,226.75759607945298L158.21313178355027,227.51899908079608L147.5303330351054,228.40949268529923L137.05214739463713,229.42446818484407L126.80616172469314,230.55865706927187L116.81931526379226,231.80615178345047L107.1178247535711,233.16042902617812L97.727111670773,234.61437550790384L88.67173177534528,236.1603160754359L79.97530717895005,237.7900441033127L71.66046113061313,239.4948540433544L63.748755708067534,241.26557601612535L56.260632594614584,243.0926123206465L49.21535711205263,244.96597573172474L42.63096567045425,246.87532944773787L36.52421678529646,248.81002854565693L30.910545801761245,250.75916279451275L25.80402345489306,252.71160067344908L21.217318382801906,254.65603443596538L17.161663698256444,256.5810260579517L13.6468277118557,258.47505390367303L10.681088887541756,260.32655994098275L8.27121509856159,262.12399733474274L6.422447239123416,263.85587824571314L5.138487233993713,265.51082166105124L4.421490475150231,267.0776010820304L4.272062701409799,268.54519189466464L4.689261323714036,269.90281824959345L5.670601185527485,271.1399992788534L7.212064734620075,272.2465944790256L9.308116569407304,273.21284809270225L11.951722310053526,274.02943232325146L15.134371731735218,274.68748922146494L18.846106084862857,275.1786710868436L23.075549514700683,275.49517923099086L27.809944480746392,275.6298009558336L33.03519106447298,275.5759446051557L38.73589004262467,275.3276725541905L44.89538959224294,274.87973200875945L51.495835482988014,274.22758349264075L58.518224602187466,273.3674269094754L65.9424616483639,272.2962250735559L73.74741881984855,271.01172461225804L81.9109983164699,269.5124741516425L90.4101974642572,267.79783970585027L99.22117626563663,265.86801720030155L108.31932717075323,263.7240420683613L117.67934685931748,261.3677958710202L127.27530981682891,258.8020098992215L137.08074348410094,256.0302657287174L147.06870475479994,253.05699270771802L157.21185759217198,249.88746236808103L167.48255153329896,246.527779761327L177.85290084710113,242.98487173134416L188.29486411089178,239.26647214620445L198.7803239696031,235.3811041220364L209.28116684181066,231.3380592823481L219.76936233745374,227.1473741065156L230.2170421535781,222.81980343134526L240.5965782166066,218.36679117961492L250.8806598425038,213.8004383992874L261.04236968975255,209.13346870662787L271.0552582842933,204.37919123571427L280.8934169004772,199.55146120577263L290.53154858760996,194.6646382263804L299.9450371378611,189.73354246879688L309.11001379806856,184.77340883952462L318.0034215353493,179.7998392995995L326.6030766743527,174.8287534800604L334.887727732461,169.87633775052194L342.83711128821716,164.9589929037461L350.4320047277239,160.09328062455933L357.65427572365496,155.29586891637973L364.48692831186963,150.58347666296163L370.914145441318,145.97281750675523L376.9213278840039,141.4805432284656L382.4951294031589,137.12318681498755L387.6234880894479,132.9171054048751L392.2956537869411,128.87842330186726L396.502211542712,125.02297524772956L400.23510102621117,121.36625014577896L403.4876318769862,117.92333542594122L406.25449495184216,114.70886224103077L408.53176945509665,111.73695168216608L410.31692594817383,109.02116219882214L411.60882524733717,106.57443840599615L412.40771323085687,104.40906145732288L412.7152115893019,102.53660115873748L412.5343045648938,100.96786999245535L411.86932173793906,99.71287921563464L410.7259169302089,98.78079719212337L409.1110433067439,98.17991010919252L407.03292476887873,97.91758522412647L404.5010237422756,98.00023677802017L401.526005474398,98.43329470612582L398.1196989661078,99.22117626563687L394.29505467189966,100.3672606929137L390.06609911267276,101.87386699287299L385.447886553851,103.74223495360803L380.4564479100585,105.97250946931786L375.10873704544167,108.56372824431685L369.42257464604916,111.51381294032126L363.4165898474317,114.81956381838546L357.11015980678457,118.47665791583222L350.52334741450136,122.47965078731363L343.6768373449266,126.82198182780365L336.59187065038765,131.4959831838671L329.2901781061977,136.49289224805426L321.7939125173071,141.80286771971822L314.1255801995727,147.41500920403138L306.3079718502391,153.3173803094864L298.36409302317713,159.49703519276824L290.3170944246948,165.94004848859998L282.19020224532125,172.6315485510408L274.0066487418973,179.55575392176985L265.78960328253373,186.69601293020247L257.5621040646057,194.0348463198197L249.34699071287622,201.55399278496006L241.16683796113898,209.2344572924998L233.04389061644093,217.05656205339506L224.99999999999963,225.00000000000037L217.05656205339488,233.04389061644113L209.23445729249966,241.16683796113915L201.55399278495992,249.3469907128764L194.03484631981954,257.5621040646059L186.69601293020233,265.78960328253385L179.5557539217697,274.0066487418975L172.63154855104062,282.1902022453214L165.94004848859987,290.317094424695L159.4970351927681,298.36409302317725L153.31738030948625,306.30797185023926L147.4150092040313,314.12558019957294L141.80286771971768,321.7939125173078L136.4928922480541,329.2901781061978L131.49598318386737,336.5918706503873L126.82198182780355,343.6768373449267L122.47965078731382,350.523347414501L118.47665791583185,357.11015980678513L114.81956381838543,363.41658984743174L111.51381294032093,369.42257464604967L108.56372824431676,375.1087370454418L105.97250946931761,380.45644791005896L103.74223495360798,385.4478865538511L101.87386699287305,390.06609911267253L100.36726069291367,394.2950546718998L99.22117626563684,398.11969896610793L98.43329470612578,401.5260054743983L98.00023677802017,404.5010237422756L97.91758522412644,407.032924768879L98.17991010919249,409.11104330674397L98.78079719212333,410.7259169302087L99.71287921563466,411.86932173793906L100.96786999245533,412.5343045648938L102.53660115873754,412.7152115893019L104.4090614573229,412.40771323085687L106.57443840599637,411.608825247337L109.02116219882218,410.31692594817383L111.7369516821663,408.5317694550965L114.70886224103086,406.25449495184205L117.92333542594105,403.4876318769863L121.36625014577905,400.2351010262111L125.02297524772942,396.5022115427122L128.8784233018676,392.2956537869407L132.9171054048752,387.62348808944773L137.123186814988,382.49512940315844L141.48054322846576,376.92132788400374L145.97281750675566,370.91414544131743L150.58347666296174,364.4869283118695L155.29586891637953,357.65427572365525L160.09328062455947,350.4320047277237L164.9589929037459,342.83711128821756L169.8763377505224,334.88772773246023L174.82875348006053,326.6030766743525L179.79983929959997,318.0034215353485L184.77340883952476,309.1100137980684L189.73354246879666,299.94503713786156L194.6646382263805,290.53154858760973L199.55146120577237,280.8934169004777L204.37919123571433,271.0552582842931L209.133468706628,261.0423696897524L213.80043839928783,250.8806598425029L218.366791179615,240.59657821660636L222.81980343134566,230.2170421535771L227.14737410651568,219.76936233745354L231.3380592823479,209.28116684181114L235.38110412203645,198.78032396960288L239.26647214620428,188.29486411089232L242.98487173134453,177.85290084710016L246.5277797613271,167.4825515332987L249.8874623680813,157.21185759217104L253.05699270771814,147.06870475479974L256.0302657287176,137.08074348410003L258.80200989922156,127.27530981682872L261.36779587102006,117.67934685931795L263.72404206836137,108.31932717075301L265.8680172003015,99.2211762656371L267.79783970585044,90.41019746425644L269.51247415164255,81.91099831646972L271.01172461225815,73.74741881984784L272.29622507355595,65.94246164836369L273.3674269094755,58.51822460218682L274.2275834926408,51.49583548298784L274.8797320087594,44.89538959224319L275.3276725541904,38.73589004262459L275.5759446051557,33.03519106447288L275.62980095583356,27.809944480745912L275.4951792309908,23.075549514700583L275.17867108684356,18.846106084862527L274.68748922146494,15.134371731735143L274.0294323232515,11.95172231005364L273.2128480927022,9.308116569407275L272.24659447902565,7.212064734620128L271.1399992788534,5.67060118552746L269.90281824959345,4.689261323713993L268.5451918946645,4.272062701409766L267.07760108203036,4.421490475150222L265.5108216610511,5.138487233993828L263.85587824571314,6.422447239123414L262.12399733474285,8.27121509856147L260.32655994098275,10.681088887541819L258.4750539036731,13.646827711855508L256.58102605795153,17.161663698256746L254.65603443596538,21.217318382802034L252.7116006734489,25.804023454893525L250.75916279451272,30.910545801761373L248.81002854565673,36.52421678529697L246.8753294477378,42.63096567045443L244.96597573172482,49.21535711205229L243.09261232064645,56.260632594614776L241.26557601612535,63.74875570806768L239.49485404335422,71.66046113061395L237.79004410331265,79.97530717895023L236.16031607543573,88.67173177534607L234.61437550790382,97.72711167077318L233.16042902617824,107.11782475357063L231.80615178345047,116.81931526379248L230.55865706927193,126.80616172469263L229.42446818484405,137.05214739463736L228.4094926852992,147.53033303510563L227.518999080796,158.21313178355126L226.75759607945298,169.07238591347567L226.12921444604564,180.07944525847694L225.6370915410572,191.20524707193584L225.28375859510598,202.42039708977416L225.07103076402933,213.6952515600128L225,224.99999999999966L225.07103076402933,236.30474843998812L225.28375859510595,247.57960291022516L225.63709154105726,258.7947529280651L226.12921444604567,269.920554741524L226.75759607945307,280.92761408652524L227.51899908079605,291.78686821644965L228.40949268529917,302.46966696489375L229.42446818484416,312.94785260536355L230.55865706927187,323.19383827530675L231.8061517834506,333.1806847362083L233.16042902617812,342.8821752464288L234.61437550790396,352.2728883292276L236.1603160754359,361.3282682246546L237.79004410331257,370.02469282104926L239.49485404335437,378.3395388693868L241.26557601612518,386.2512442919318L243.0926123206466,393.73936740538585L244.9659757317247,400.7846428879473L246.87532944773795,407.36903432954614L248.8100285456569,413.4757832147035L250.75916279451286,419.0894541982391L252.71160067344906,424.1959765451069L254.6560344359652,428.7826816171978L256.5810260579517,432.8383363017435L258.47505390367303,436.35317228814426L260.3265599409829,439.3189111124584L262.12399733474274,441.7287849014384L263.85587824571326,443.57755276087664L265.51082166105124,444.8615127660063L267.0776010820305,445.5785095248498L268.54519189466464,445.7279372985902L269.9028182495934,445.310738676286L271.13999927885345,444.3293988144724L272.2465944790256,442.78793526537993L273.2128480927023,440.69188343059255L274.02943232325146,438.0482776899465L274.687489221465,434.8656282682646L275.17867108684356,431.1538939151372L275.49517923099074,426.9244504852997L275.62980095583356,422.19005551925363L275.5759446051557,416.96480893552746L275.3276725541904,411.26410995737496L274.87973200875945,405.10461040775715L274.2275834926407,398.50416451701153L273.3674269094754,391.4817753978126L272.29622507355583,384.0575383516356L271.0117246122581,376.25258118015154L269.51247415164266,368.08900168353074L267.79783970585027,359.5898025357429L265.8680172003016,350.77882373436347L263.7240420683612,341.6806728292462L261.36779587102023,332.3206531406826L258.8020098992214,322.7246901831705L256.0302657287174,312.9192565158991L253.05699270771788,302.9312952451994L249.88746236808103,292.7881424078281L246.5277797613273,282.5174484667019L242.9848717313442,272.147099152899L239.26647214620448,261.7051358891083L235.38110412203616,251.21967603039624L231.33805928234813,240.71883315818945L227.14737410651534,230.2306376625456L222.8198034313453,219.78295784642202L218.36679117961464,209.40342178339282L213.80043839928743,199.11934015749628L209.13346870662826,188.95763031024825L204.37919123571396,178.94474171570607L199.55146120577265,169.10658309952288L194.6646382263801,159.46845141238953L189.73354246879697,150.054962862139L184.77340883952434,140.88998620193092L179.79983929959957,131.99657846465078L174.82875348006078,123.396923325648L169.876337750522,115.11227226753908L164.95899290374615,107.16288871178284L160.09328062455904,99.5679952722756L155.29586891637982,92.34572427634515L150.58347666296135,85.51307168812991L145.9728175067553,79.08585455868206L141.48054322846536,73.0786721159958L137.12318681498763,67.50487059684116L132.91710540487543,62.376511910552495L128.87842330186726,57.704346213058955L125.02297524772962,53.49778845728804L121.36625014577876,49.76489897378866L117.92333542594123,46.5123681230138L114.70886224103057,43.745505048157725L111.7369516821661,41.46823054490335L109.02116219882198,39.683074051826054L106.57443840599618,38.39117475266289L104.409061457323,37.59228676914313L102.53660115873738,37.28478841069813L100.96786999245539,37.46569543510623L99.71287921563456,38.130678262061L98.78079719212339,39.27408306979112L98.17991010919246,40.888956693256205L97.91758522412643,42.96707523112127L98.00023677802015,45.498976257724166L98.43329470612582,48.473994525601995L99.2211762656368,51.88030103389184L100.36726069291379,55.704945328100564L101.87386699287295,59.933900887327184L103.74223495360815,64.55211344614929L105.97250946931781,69.54355208994144L108.56372824431699,74.89126295455867L111.51381294032119,80.57742535395079L114.81956381838523,86.58341015256786L118.47665791583215,92.88984019321543L122.47965078731356,99.47665258549864L126.82198182780391,106.32316265507382L131.49598318386705,113.4081293496123L136.49289224805452,120.70982189380283L141.80286771971814,128.20608748269285L147.41500920403175,135.87441980042775L153.31738030948634,143.69202814976086L159.4970351927677,151.63590697682224L165.9400484886004,159.6829055753057L172.63154855104068,167.8097977546787L179.5557539217703,175.9933512581032L186.69601293020241,184.21039671746627L194.03484631982016,192.43789593539475L201.55399278495997,200.65300928712375L209.2344572924992,208.8331620388604L217.056562053395,216.95610938355898L224.99999999999972,224.99999999999974L233.04389061644162,232.9434379466056L241.16683796113907,240.7655427075003L249.34699071287685,248.44600721504057L257.5621040646058,255.9651536801804L265.78960328253436,263.3039870697981L274.0066487418974,270.4442460782302L282.19020224532073,277.3684514489588L290.3170944246949,284.0599515114001L298.3640930231772,290.5029648072319L306.3079718502397,296.6826196905141L314.1255801995728,302.5849907959687L321.7939125173077,308.1971322802823L329.2901781061977,313.50710775194585L336.5918706503883,318.5040168161333L343.6768373449267,323.17801817219646L350.52334741450096,327.52034921268614L357.1101598067851,331.5233420841681L363.41658984743174,335.1804361816145L369.4225746460496,338.486187059679L375.1087370454417,341.4362717556832L380.4564479100589,344.02749053068237L385.44788655385105,346.257765046392L390.0660991126731,348.1261330071271L394.2950546718997,349.63273930708635L398.1196989661078,350.7788237343632L401.5260054743983,351.5667052938742L404.5010237422756,351.99976322197983L407.03292476887896,352.08241477587353L409.1110433067439,351.8200898908075L410.72591693020894,351.2192028078765L411.86932173793906,350.28712078436536L412.5343045648938,349.0321300075447L412.7152115893019,347.46339884126246L412.40771323085687,345.5909385426771L411.60882524733705,343.4255615940036L410.31692594817383,340.97883780117786L408.5317694550964,338.2630483178337L406.2544949518421,335.29113775896917L403.487631876986,332.0766645740585L400.2351010262111,328.63374985422104L396.5022115427122,324.9770247522706L392.29565378694076,321.12157669813246L387.6234880894478,317.08289459512486L382.4951294031585,312.87681318501205L376.9213278840038,308.5194567715343L370.9141454413175,304.02718249324437L364.48692831186963,299.4165233370383L357.65427572365434,294.70413108361987L350.4320047277238,289.9067193754406L342.8371112882176,285.04100709625413L334.8877277324603,280.12366224947766L326.60307667435256,275.17124651993953L318.00342153534854,270.2001607004001L309.11001379806845,265.2265911604753L299.94503713786037,260.2664575312027L290.53154858760985,255.33536177361955L280.8934169004778,250.4485387942277L271.0552582842932,245.6208087642857L261.04236968975243,240.86653129337205L250.88065984250298,236.1995616007122L240.59657821660645,231.63320882038502L230.21704215357718,227.18019656865437L219.76936233745363,222.85262589348434L209.28116684180978,218.66194071765156L198.780323969603,214.61889587796358L188.2948641108924,210.73352785379578L177.85290084710024,207.01512826865553L167.48255153329882,203.47222023867295L157.21185759217113,200.1125376319187L147.06870475479982,196.94300729228192L137.08074348410014,193.96973427128245L127.27530981682881,191.19799010077844L117.67934685931668,188.63220412897965L108.31932717075313,186.2759579316387L99.22117626563717,184.1319827996985L90.41019746425648,182.20216029414962L81.9109983164698,180.4875258483575L73.7474188198479,178.98827538774185L65.94246164836383,177.70377492644405L58.51822460218687,176.6325730905245L51.49583548298794,175.77241650735925L44.89538959224329,175.1202679912406L38.73589004262462,174.67232744580957L33.03519106447293,174.4240553948443L27.80994448074599,174.37019904416644L23.075549514700633,174.5048207690092L18.84610608486256,174.82132891315644L15.134371731735168,175.31251077853506L11.9517223100533,175.9705676767486L9.308116569407279,176.7871519072978L7.212064734620174,177.75340552097435L5.670601185527485,178.8600007211466L4.689261323714036,180.09718175040655L4.272062701409773,181.45480810533547L4.421490475150231,182.9223989179696L5.138487233993813,184.48917833894888L6.422447239123416,186.14412175428686L8.27121509856174,187.87600266525743L10.681088887541781,189.67344005901725L13.646827711855499,191.52494609632691L17.161663698256742,193.41897394204847L21.217318382801956,195.34396556403462L25.80402345489346,197.2883993265511L30.910545801761323,199.24083720548725L36.52421678529696,201.1899714543432L42.63096567045433,203.1246705522622L49.21535711205318,205.03402426827537L56.260632594614655,206.90738767935355L63.748755708067634,208.73442398387465L71.66046113061383,210.50514595664572L79.97530717895015,212.2099558966873L88.67173177534603,213.83968392456427L97.72711167077313,215.38562449209616L107.1178247535719,216.83957097382196L116.81931526379239,218.19384821654953L126.80616172469253,219.44134293072807L137.05214739463725,220.57553181515595L147.5303330351055,221.5905073147008L158.21313178355115,222.481000919204L169.07238591347556,223.242403920547L180.07944525847682,223.87078555395436L191.20524707193573,224.3629084589428L202.42039708977566,224.71624140489405L213.6952515600127,224.92896923597067" stroke="purple" width="3" fill="none"></path></g></g>
</svg>
